<?xml version="1.0" standalone="no"?>
<!DOCTYPE svg PUBLIC "-//W3C//DTD SVG 20010904//EN"
 "http://www.w3.org/TR/2001/REC-SVG-20010904/DTD/svg10.dtd">
<svg version="1.0" xmlns="http://www.w3.org/2000/svg"
 width="959.000000pt" height="959.000000pt" viewBox="0 0 959.000000 959.000000"
 preserveAspectRatio="xMidYMid meet">
<metadata>
Created by potrace 1.11, written by Peter Selinger 2001-2013
</metadata>
<g transform="translate(0.000000,959.000000) scale(0.100000,-0.100000)"
fill="#000000" stroke="none">
<path d="M3680 8964 c0 -12 -6 -15 -21 -11 -15 4 -31 -2 -50 -21 -30 -28 -39
-62 -16 -62 8 0 22 -9 31 -19 22 -24 93 -26 118 -4 21 19 15 33 -10 26 -25 -6
-57 60 -42 88 7 13 7 19 0 19 -5 0 -10 -7 -10 -16z"/>
<path d="M7546 8889 c-14 -11 -26 -27 -26 -35 0 -8 -9 -14 -20 -14 -11 0 -36
-6 -55 -14 -27 -11 -32 -19 -28 -35 3 -12 9 -21 14 -21 12 0 11 -47 -1 -55 -5
-3 -10 -15 -10 -25 0 -11 -9 -24 -20 -30 -11 -6 -20 -17 -20 -25 0 -8 -5 -15
-11 -15 -19 0 -69 -41 -69 -56 0 -8 10 -14 24 -14 17 0 27 -7 31 -22 4 -13 14
-37 22 -54 15 -30 15 -33 0 -49 -9 -9 -18 -21 -18 -26 -1 -5 -2 -14 -3 -19 -2
-19 -68 -52 -79 -41 -16 16 -47 13 -53 -3 -5 -13 -11 -13 -40 1 -41 20 -58 9
-24 -17 15 -11 35 -17 50 -14 36 7 58 -10 41 -30 -15 -18 -51 -22 -51 -6 0 20
-32 9 -62 -20 -17 -17 -47 -39 -67 -49 -20 -11 -47 -31 -60 -45 -14 -14 -29
-26 -34 -26 -12 0 -35 -28 -47 -57 -7 -18 -18 -23 -45 -23 -19 0 -35 -5 -35
-11 0 -8 13 -9 39 -5 22 3 42 2 45 -3 6 -10 -26 -41 -46 -45 -17 -3 -88 -70
-88 -83 0 -6 -14 -16 -31 -22 -17 -6 -33 -20 -36 -31 -3 -12 -14 -20 -25 -20
-17 0 -20 6 -17 44 2 24 1 42 -3 40 -12 -8 3 29 20 49 18 21 36 22 52 2 20
-24 40 -18 40 11 0 16 -7 28 -18 30 -15 5 -16 13 -9 72 4 37 9 81 11 97 2 17
4 35 4 42 1 6 11 9 21 6 16 -4 19 1 19 32 0 33 -2 36 -26 33 -16 -2 -31 -14
-42 -33 -9 -16 -37 -41 -63 -55 -26 -14 -68 -45 -93 -68 -41 -37 -45 -45 -39
-72 6 -27 2 -35 -27 -61 -64 -56 -78 -71 -78 -84 0 -26 -39 -28 -59 -4 -12 15
-20 19 -25 11 -4 -7 -1 -12 8 -12 21 0 21 -26 0 -34 -20 -8 -56 -90 -52 -119
2 -13 -2 -21 -9 -20 -6 1 -23 -13 -38 -32 -14 -19 -31 -35 -37 -35 -6 0 -21
-11 -34 -25 -34 -36 -114 -33 -114 5 0 19 30 50 48 50 20 0 92 32 92 40 0 11
-37 24 -69 25 -15 1 -27 -7 -34 -22 -12 -27 -39 -30 -58 -6 -28 33 -110 53
-153 37 -23 -9 -21 -82 4 -119 11 -16 20 -39 20 -51 0 -13 14 -28 40 -43 24
-13 40 -30 40 -40 0 -10 34 -54 76 -97 42 -44 82 -89 90 -100 8 -12 27 -24 42
-27 16 -4 37 -21 52 -44 50 -75 70 -109 81 -134 6 -16 26 -33 52 -45 23 -10
58 -35 78 -56 20 -21 42 -38 48 -38 6 0 11 -9 11 -20 0 -11 6 -20 13 -20 6 0
25 -13 40 -30 16 -17 35 -30 42 -30 7 0 16 -7 19 -16 3 -9 12 -14 20 -11 8 3
22 -1 33 -8 10 -8 25 -15 34 -15 9 0 21 -11 27 -25 7 -15 20 -25 33 -25 31 0
105 -60 87 -71 -10 -7 -10 -9 2 -9 8 0 20 -10 25 -22 6 -14 20 -24 35 -26 54
-6 69 -13 82 -39 7 -14 20 -27 30 -29 20 -2 78 -45 78 -56 0 -17 67 -37 104
-31 27 4 37 2 42 -11 3 -9 12 -16 20 -16 16 0 18 -9 4 -30 -7 -11 -14 -12 -27
-4 -10 6 -29 7 -43 3 -25 -7 -25 -7 8 -19 17 -6 32 -16 32 -20 0 -5 15 -6 34
-3 21 3 36 1 41 -7 5 -9 2 -10 -14 -5 -28 9 -81 -15 -81 -37 0 -23 41 -33 70
-18 23 12 50 -1 50 -25 0 -6 9 -20 20 -30 28 -25 45 -82 30 -100 -9 -11 -8
-19 4 -37 9 -12 16 -33 16 -45 0 -14 6 -23 15 -23 8 0 15 -5 15 -12 0 -27 84
-181 101 -185 10 -3 21 -14 24 -24 5 -14 16 -19 42 -19 30 0 42 7 72 42 39 45
90 113 94 125 1 5 5 7 10 5 15 -5 6 35 -12 54 -16 18 -17 24 -5 45 7 14 11 41
8 64 -4 30 -2 36 5 25 17 -24 1 51 -17 78 -8 12 -12 31 -9 41 2 11 -3 31 -13
45 -13 21 -16 43 -13 109 6 119 6 118 -13 153 -15 27 -20 30 -36 21 -14 -9
-23 -9 -37 0 -46 29 -251 38 -267 12 -2 -4 -12 -5 -21 -2 -9 4 -21 -1 -29 -11
-7 -10 -17 -15 -22 -12 -6 3 -13 -2 -16 -11 -4 -10 -1 -20 7 -25 9 -4 12 -17
10 -33 l-5 -25 -30 25 c-16 14 -34 25 -40 25 -5 0 -8 8 -6 18 2 9 10 17 17 17
26 0 23 24 -6 42 -15 10 -33 25 -40 33 -11 13 -12 13 -13 -2 0 -23 -18 -32
-56 -30 -18 2 -37 -4 -44 -13 -15 -18 -40 -20 -40 -3 0 6 10 23 23 36 15 17
18 26 10 29 -7 3 -13 11 -13 19 0 9 5 12 10 9 6 -3 10 -1 10 5 0 6 16 18 35
26 20 8 34 18 31 23 -10 15 25 53 43 45 9 -3 42 -8 75 -10 58 -4 86 -16 86
-38 1 -6 10 -22 20 -35 18 -20 26 -23 68 -18 37 4 53 12 77 39 37 42 71 63
121 77 64 18 77 46 79 170 1 80 7 124 25 181 13 41 27 77 31 80 3 3 9 15 13
27 6 19 3 22 -31 26 -33 3 -35 5 -15 12 12 4 22 14 22 21 0 8 6 14 13 14 19 0
49 59 38 77 -5 11 -3 29 6 52 25 59 42 208 39 331 -7 206 -14 308 -22 322 -5
7 -9 38 -9 68 -2 77 -23 176 -51 238 -13 29 -24 62 -24 75 0 34 -35 148 -61
197 -13 25 -23 47 -24 50 0 3 -5 12 -10 20 -6 8 -14 23 -20 34 -11 20 -87 66
-109 66 -7 0 -25 -9 -40 -21z m-146 -599 c0 -5 -8 -10 -17 -10 -15 0 -16 2 -3
10 19 12 20 12 20 0z m-57 -7 c-13 -2 -33 -2 -45 0 -13 2 -3 4 22 4 25 0 35
-2 23 -4z m-683 -613 c0 -16 7 -20 30 -20 27 0 30 -3 30 -30 0 -16 -5 -30 -11
-30 -8 0 -8 -4 -2 -12 18 -23 23 -49 10 -46 -15 3 -77 -24 -77 -34 0 -11 -48
-10 -55 2 -14 23 -7 82 13 110 12 16 22 38 22 48 0 22 8 32 27 32 7 0 13 -9
13 -20z m187 -166 c7 -18 -46 -74 -71 -74 -8 0 -20 -9 -26 -19 -19 -37 -110
-50 -110 -16 0 7 25 32 55 55 30 23 55 46 55 51 0 7 27 14 73 18 10 0 20 -6
24 -15z m759 -55 c3 -6 -2 -18 -11 -27 -12 -11 -15 -12 -10 -3 6 11 4 13 -8 8
-23 -9 -31 10 -10 22 23 13 30 13 39 0z m-36 -70 c-6 -11 -16 -16 -26 -12 -9
3 -20 0 -25 -8 -6 -9 -9 -10 -9 -2 0 19 40 52 56 46 10 -4 11 -10 4 -24z m165
-11 c-4 -9 -15 -18 -26 -21 -37 -10 -15 -77 26 -77 28 0 29 -3 15 -31 -13 -23
-37 -25 -61 -3 -25 23 -42 8 -36 -31 4 -25 1 -38 -13 -50 -15 -14 -17 -22 -9
-37 15 -27 6 -44 -28 -53 -37 -9 -46 -25 -25 -48 14 -16 14 -19 2 -27 -8 -6
-23 -10 -33 -10 -10 0 -20 -6 -22 -12 -3 -8 -30 -14 -70 -16 -62 -2 -65 -1
-71 24 -6 22 -11 25 -38 21 -17 -2 -39 -7 -48 -12 -15 -6 -18 -2 -18 19 0 14
5 26 10 26 6 0 16 11 22 25 6 14 26 32 43 41 21 9 36 27 45 52 17 48 67 155
76 164 3 4 15 3 25 -3 13 -6 19 -6 19 1 0 5 7 10 16 10 8 0 13 -4 9 -9 -3 -5
7 -19 21 -30 l27 -21 11 22 c6 12 25 29 41 38 36 18 67 49 60 60 -7 11 18 20
28 10 4 -3 5 -14 2 -22z m-175 -28 c0 -5 -4 -10 -10 -10 -5 0 -10 5 -10 10 0
6 5 10 10 10 6 0 10 -4 10 -10z m117 -316 c-3 -3 -12 -4 -19 -1 -8 3 -5 6 6 6
11 1 17 -2 13 -5z m-177 -78 c0 -11 -19 -15 -25 -6 -3 5 1 10 9 10 9 0 16 -2
16 -4z m-340 -156 c0 -19 -20 -27 -33 -13 -8 7 11 33 24 33 5 0 9 -9 9 -20z
m600 -880 c0 -5 -7 -10 -15 -10 -8 0 -15 5 -15 10 0 6 7 10 15 10 8 0 15 -4
15 -10z"/>
<path d="M7304 8785 c-15 -14 -35 -25 -44 -25 -24 0 -52 -34 -44 -54 11 -30
60 -20 90 19 15 19 37 38 50 41 28 7 29 10 10 30 -20 20 -31 18 -62 -11z"/>
<path d="M3695 8761 c-3 -5 -14 -7 -25 -4 -29 8 -52 -15 -49 -51 4 -57 -1 -74
-21 -79 -18 -5 -20 -14 -20 -76 0 -50 4 -71 13 -71 8 0 8 -3 2 -8 -14 -9 -13
-150 0 -160 19 -13 65 -88 65 -105 0 -25 85 -104 119 -112 17 -3 45 1 70 11
23 9 52 14 66 10 29 -7 84 22 64 34 -6 4 -12 24 -13 44 -1 35 -6 40 -33 37 -8
-1 -13 10 -13 30 0 46 -49 88 -94 80 -4 -1 -17 1 -27 4 -20 7 -27 45 -8 45 9
0 55 47 71 74 7 12 -12 86 -22 86 -3 0 -1 36 4 80 l10 79 -30 28 c-21 20 -41
28 -76 30 -26 1 -50 -1 -53 -6z m35 -126 c0 -3 -6 -5 -13 -5 -7 0 -17 -10 -22
-22 -25 -54 -53 -6 -40 66 l7 35 34 -34 c19 -19 34 -37 34 -40z m-23 -51 c-3
-4 1 -13 9 -22 13 -12 13 -16 2 -23 -21 -14 -35 -10 -41 10 -5 20 9 41 27 41
5 0 7 -3 3 -6z m-67 -124 c0 -5 -2 -10 -4 -10 -3 0 -8 5 -11 10 -3 6 -1 10 4
10 6 0 11 -4 11 -10z"/>
<path d="M7392 8749 c2 -6 8 -10 13 -10 5 0 11 4 13 10 2 6 -4 11 -13 11 -9 0
-15 -5 -13 -11z"/>
<path d="M7088 8313 c6 -2 18 -2 25 0 6 3 1 5 -13 5 -14 0 -19 -2 -12 -5z"/>
<path d="M3450 8034 c-61 -20 -90 -39 -99 -65 -7 -20 -6 -31 3 -38 7 -6 16 -8
19 -5 3 4 14 3 24 -1 16 -7 15 -9 -7 -15 -20 -7 -16 -8 21 -9 49 -1 70 14 83
57 4 12 12 22 17 22 13 0 11 34 -3 48 -12 12 -32 14 -58 6z"/>
<path d="M2139 7786 c-16 -8 -32 -10 -40 -5 -19 12 -99 11 -99 -1 0 -5 -11
-10 -25 -10 -14 0 -25 -4 -25 -10 0 -5 5 -10 11 -10 5 0 7 -4 4 -10 -9 -14
-102 -13 -107 2 -3 9 -6 9 -12 0 -4 -7 -2 -12 3 -12 6 0 11 -9 11 -20 0 -22
-16 -27 -22 -8 -3 9 -10 8 -22 -5 -11 -11 -23 -14 -32 -9 -18 10 -84 -8 -84
-23 0 -5 -4 -4 -9 4 -7 11 -10 9 -16 -8 -6 -21 -25 -29 -25 -11 0 6 -12 11
-27 11 -22 2 -19 3 12 9 35 6 36 7 10 8 -42 2 -75 -8 -75 -23 0 -15 -54 -30
-69 -21 -5 4 -13 2 -16 -4 -4 -6 -19 -10 -33 -9 -60 5 -92 -1 -92 -16 0 -8 -9
-15 -21 -15 -13 0 -18 4 -13 12 8 12 -7 10 -131 -18 -38 -9 -111 -20 -162 -25
-50 -4 -111 -14 -135 -20 -23 -7 -71 -11 -105 -10 -43 1 -64 -3 -70 -12 -5 -9
-47 -18 -113 -26 -97 -11 -175 -23 -340 -51 -36 -7 -111 -17 -167 -23 l-103
-11 0 -403 0 -404 38 7 c20 4 38 11 40 15 2 5 22 9 44 9 35 0 40 2 35 20 -5
18 0 20 38 20 24 0 45 -5 47 -12 3 -7 11 -9 24 -4 12 5 15 10 7 13 -9 3 -10
10 -3 22 6 12 36 24 87 36 84 19 106 31 80 41 -19 7 -23 24 -5 24 6 0 20 7 30
17 13 11 18 12 18 3 0 -7 10 -21 22 -31 21 -19 22 -19 40 0 10 11 18 27 18 35
0 8 5 16 11 18 9 3 8 14 -2 41 -13 38 -35 52 -26 17 3 -13 0 -20 -9 -20 -18 0
-19 47 -1 64 7 7 36 12 68 12 40 -1 61 4 73 17 10 9 24 17 32 17 17 0 19 36 2
43 -7 3 -3 6 9 6 24 1 43 27 43 59 0 11 14 32 30 45 29 25 40 57 20 57 -5 0
-7 6 -4 14 7 18 59 40 73 32 6 -4 18 2 28 14 10 11 25 20 35 20 10 0 18 7 18
15 0 10 10 15 30 15 20 0 30 5 30 15 0 8 5 15 11 15 5 0 7 5 4 10 -3 6 -22 10
-41 10 -21 0 -33 4 -29 10 4 6 11 8 16 5 5 -4 26 3 47 14 20 11 49 22 65 25
15 4 27 12 27 19 0 8 15 11 50 9 32 -3 50 0 50 7 0 6 -7 11 -15 11 -21 0 -19
30 3 31 30 2 45 -2 60 -18 14 -13 17 -13 33 8 13 17 14 26 6 31 -8 5 -6 8 5 8
9 0 20 -4 23 -10 10 -16 25 -12 25 6 0 14 7 15 40 10 30 -5 40 -3 40 7 0 8 18
20 40 27 22 7 40 19 40 27 0 8 12 13 34 13 19 0 38 5 41 10 3 6 19 10 34 10
43 0 91 11 86 20 -3 5 5 12 17 16 13 4 24 2 26 -5 2 -6 22 -11 44 -11 37 0 40
2 36 24 -4 17 -1 23 9 19 7 -3 13 0 13 6 0 7 20 11 48 11 49 0 92 23 92 49 0
9 5 9 20 1 11 -6 32 -10 47 -11 15 0 46 -1 68 -3 22 -1 47 3 55 10 8 6 24 14
35 17 16 3 14 6 -12 12 -21 5 -30 12 -26 21 7 18 -14 18 -48 0z m-1239 -520
c0 -3 -4 -8 -10 -11 -5 -3 -10 -1 -10 4 0 6 5 11 10 11 6 0 10 -2 10 -4z"/>
<path d="M4285 7400 c-9 -14 4 -32 17 -24 6 4 14 0 19 -7 7 -11 9 -10 9 3 0
21 -36 43 -45 28z"/>
<path d="M4210 7301 c-24 -59 13 -97 46 -47 15 24 15 28 0 51 -21 32 -31 32
-46 -4z"/>
<path d="M4156 7150 c-7 -43 -11 -45 -49 -31 -31 12 -40 4 -26 -21 14 -27 72
-21 77 7 3 11 13 28 23 38 24 23 24 47 0 47 -14 0 -20 -10 -25 -40z"/>
<path d="M4063 7028 c0 -7 -4 -25 -8 -40 -10 -39 20 -50 46 -17 26 33 25 63
-1 56 -11 -3 -20 -1 -20 4 0 14 -17 11 -17 -3z"/>
<path d="M602 6810 c0 -14 2 -19 5 -12 2 6 2 18 0 25 -3 6 -5 1 -5 -13z"/>
<path d="M5387 6776 c-7 -17 11 -36 35 -36 21 0 24 20 6 38 -16 16 -35 15 -41
-2z"/>
<path d="M3950 6755 c0 -8 7 -15 15 -15 9 0 12 6 9 15 -4 8 -10 15 -15 15 -5
0 -9 -7 -9 -15z"/>
<path d="M4080 6726 c-14 -39 -10 -45 22 -32 26 11 26 12 8 36 l-19 25 -11
-29z"/>
<path d="M7696 6724 c-21 -21 -18 -24 17 -17 15 3 26 10 24 16 -6 18 -24 19
-41 1z"/>
<path d="M338 6703 c6 -2 18 -2 25 0 6 3 1 5 -13 5 -14 0 -19 -2 -12 -5z"/>
<path d="M7437 6704 c-4 -4 -7 -14 -7 -23 0 -11 3 -12 11 -4 6 6 10 16 7 23
-2 6 -7 8 -11 4z"/>
<path d="M2834 6680 c-79 -11 -124 -32 -140 -62 -8 -16 -18 -28 -23 -28 -5 0
-16 -17 -24 -38 -8 -21 -22 -44 -31 -51 -11 -9 -16 -28 -14 -56 0 -23 -2 -47
-6 -53 -4 -7 -1 -12 8 -12 9 0 39 25 68 55 47 51 78 69 78 46 0 -5 -7 -17 -16
-25 -36 -36 -55 -123 -52 -234 2 -88 0 -107 -12 -109 -24 -5 -63 74 -66 132
-1 27 -3 53 -3 58 -1 4 -10 7 -21 7 -18 0 -25 -12 -32 -60 -5 -39 37 -200 53
-200 4 0 16 -14 26 -30 10 -17 37 -40 60 -51 24 -11 43 -25 43 -30 0 -5 20 -9
45 -9 32 0 64 10 112 35 37 19 70 35 74 35 10 0 47 33 125 111 80 79 94 96 94
113 0 7 9 20 21 27 22 15 34 81 34 197 0 62 -1 65 -38 95 -21 17 -43 41 -48
54 -6 16 -17 23 -34 23 -14 0 -25 5 -25 11 0 33 -157 63 -256 49z m34 -188
c17 -12 6 -37 -23 -50 -18 -8 -26 -8 -35 3 -9 11 -7 18 9 34 23 23 30 25 49
13z m226 -49 c4 -10 -1 -24 -12 -36 -16 -15 -23 -17 -41 -8 -21 12 -23 26 -6
48 15 18 52 16 59 -4z"/>
<path d="M4110 6660 c0 -5 5 -10 11 -10 5 0 7 5 4 10 -3 6 -8 10 -11 10 -2 0
-4 -4 -4 -10z"/>
<path d="M5568 6643 c6 -2 18 -2 25 0 6 3 1 5 -13 5 -14 0 -19 -2 -12 -5z"/>
<path d="M5720 6400 c-23 -14 2 -32 34 -24 21 5 24 9 15 20 -13 16 -28 17 -49
4z"/>
<path d="M7258 6383 c7 -3 16 -2 19 1 4 3 -2 6 -13 5 -11 0 -14 -3 -6 -6z"/>
<path d="M4970 6332 c-14 -2 -36 -12 -50 -22 -14 -10 -39 -21 -57 -24 -17 -4
-51 -24 -75 -44 -57 -49 -105 -82 -118 -82 -5 0 -10 -4 -10 -8 0 -17 -75 -42
-133 -46 -58 -4 -98 -23 -77 -36 6 -4 8 -14 4 -23 -6 -15 -28 -22 -61 -18 -6
1 -14 -7 -18 -18 -9 -29 -33 -47 -47 -33 -16 16 -69 -13 -62 -33 5 -11 -1 -15
-24 -15 -32 0 -61 -23 -42 -35 5 -3 10 -21 10 -38 0 -34 13 -61 30 -63 5 -1
26 -2 45 -3 28 -1 35 -5 35 -21 0 -11 -5 -20 -11 -20 -22 0 -2 -24 22 -25 89
-4 87 -3 96 -42 7 -30 17 -42 49 -59 21 -11 51 -23 64 -26 29 -7 81 -25 125
-43 17 -7 59 -19 95 -28 36 -8 79 -21 97 -28 26 -10 39 -10 72 1 26 8 59 11
94 6 48 -5 61 -2 111 24 34 19 70 30 95 30 30 0 42 5 55 25 9 14 25 25 36 25
10 0 61 42 115 95 53 52 101 95 106 95 11 0 42 57 49 90 3 15 14 26 30 30 32
7 37 40 15 87 -9 19 -15 43 -12 53 3 11 -1 21 -9 24 -8 3 -14 0 -14 -7 0 -15
-67 -20 -76 -6 -3 5 -14 9 -26 9 -24 0 -69 31 -119 82 -20 21 -51 43 -68 49
-17 6 -28 15 -25 20 8 13 -40 29 -87 29 -21 0 -39 4 -39 9 0 6 -20 13 -44 16
-25 4 -53 15 -63 24 -22 21 -49 28 -83 23z m58 -231 c48 -24 51 -34 19 -56
-21 -13 -28 -13 -65 1 -45 18 -69 14 -79 -13 -16 -48 -105 -223 -113 -223 -5
0 -12 -9 -15 -20 -9 -27 -50 -26 -69 2 -43 61 13 213 103 286 25 20 48 41 50
46 6 15 125 -1 169 -23z"/>
<path d="M5511 6161 c-17 -11 -4 -34 15 -27 7 3 20 -5 29 -17 10 -15 15 -17
15 -6 0 16 -27 59 -38 59 -4 0 -13 -4 -21 -9z"/>
<path d="M4372 5698 c6 -18 28 -21 28 -4 0 9 -7 16 -16 16 -9 0 -14 -5 -12
-12z"/>
<path d="M2495 5366 c-27 -5 -52 -12 -55 -17 -3 -4 -17 -10 -31 -12 -30 -6
-69 -28 -69 -39 0 -5 8 -8 18 -9 11 -1 9 -4 -8 -9 -17 -5 -19 -8 -7 -9 9 -1
17 -6 17 -12 0 -7 -14 -10 -37 -7 -56 7 -124 -9 -151 -35 -28 -25 -45 -56 -66
-118 -20 -55 -20 -79 -2 -126 8 -21 17 -59 20 -84 4 -40 1 -50 -20 -70 -28
-26 -30 -47 -10 -114 13 -42 13 -51 0 -78 -11 -21 -13 -32 -5 -40 17 -17 13
-46 -9 -74 -11 -14 -20 -32 -20 -40 0 -10 6 -12 20 -8 16 5 20 2 20 -15 0 -18
-4 -21 -25 -17 -18 3 -30 -2 -40 -17 -22 -30 -19 -66 4 -66 36 0 33 -19 -8
-58 -42 -40 -53 -78 -26 -89 9 -3 23 1 33 9 9 9 25 15 34 15 23 0 15 -37 -19
-86 -30 -44 -26 -72 12 -89 62 -27 60 -23 57 -108 -4 -83 4 -116 35 -149 10
-11 25 -34 32 -52 7 -17 21 -39 32 -49 10 -9 19 -23 19 -29 0 -13 31 -25 67
-25 22 0 85 -66 81 -85 -2 -5 21 -35 51 -65 47 -48 54 -60 55 -97 1 -34 5 -43
19 -43 10 0 26 -14 35 -30 9 -17 26 -33 37 -36 11 -3 47 -17 81 -31 l61 -25
34 21 c19 12 42 18 55 15 13 -3 28 1 38 12 16 16 20 16 44 2 22 -12 33 -12 61
-3 33 12 70 49 71 72 0 6 12 13 28 15 19 2 28 9 30 26 3 20 7 22 35 17 18 -4
42 -13 55 -21 19 -13 22 -13 22 1 0 33 71 13 88 -25 16 -35 32 -42 71 -27 26
10 33 8 53 -9 18 -16 32 -20 66 -16 35 3 42 8 42 26 0 23 34 46 65 46 8 0 15
7 15 15 0 9 9 15 21 15 12 0 19 -5 16 -12 -7 -20 11 -46 42 -63 26 -13 30 -13
42 1 10 13 10 19 0 36 -11 18 -10 24 9 42 16 15 24 17 27 9 3 -7 12 -13 20
-13 9 0 13 -3 10 -7 -4 -3 -2 -12 3 -18 7 -9 2 -22 -20 -45 -31 -33 -38 -50
-20 -50 6 0 10 3 10 8 0 4 18 7 40 7 22 0 40 -3 40 -7 0 -17 17 -7 28 16 10
22 8 25 -11 29 -12 2 2 5 31 6 30 0 52 6 52 12 0 7 10 9 25 5 36 -9 137 42
129 66 -6 20 -9 19 91 21 66 2 70 3 73 26 2 14 15 39 28 56 19 26 29 31 54 27
38 -6 59 11 52 43 -4 22 -1 25 22 25 32 0 37 35 6 45 -28 9 -25 25 4 25 42 0
75 18 82 45 9 37 -13 82 -44 90 -15 3 -44 18 -66 33 l-38 26 -20 -27 c-16 -22
-23 -25 -38 -17 -36 19 -89 12 -115 -16 -14 -15 -25 -22 -25 -15 0 13 -52 15
-65 2 -6 -5 -50 -13 -99 -20 -50 -6 -94 -15 -100 -21 -5 -5 -27 -10 -47 -10
-21 0 -41 -5 -44 -10 -4 -6 -26 -8 -56 -4 -27 4 -49 3 -49 -2 0 -5 -15 -15
-32 -22 -18 -7 -46 -19 -61 -27 -39 -20 -43 -19 -57 14 -12 30 -72 61 -119 61
-26 0 -91 36 -91 51 0 5 10 23 22 39 17 24 19 32 8 45 -16 19 -59 20 -66 0 -4
-8 -12 -15 -20 -15 -26 0 -14 42 26 92 44 56 48 69 24 92 -19 20 -28 20 -57 2
-34 -21 -77 -29 -78 -14 -5 63 -5 86 3 82 14 -9 58 44 58 70 0 33 -35 57 -71
49 -25 -5 -29 -2 -29 16 0 14 11 28 29 39 l29 16 -26 34 c-25 32 -25 35 -8 47
12 9 16 20 11 34 -5 16 -2 21 13 21 11 0 22 -5 24 -12 3 -8 17 0 36 20 33 34
35 44 37 188 0 22 6 48 14 57 13 16 33 94 33 127 0 64 -17 200 -29 223 -8 16
-29 35 -46 42 -18 7 -37 23 -44 34 -7 11 -42 37 -79 58 -36 21 -85 49 -107 62
-49 28 -252 81 -306 80 -20 -1 -54 3 -76 9 -45 12 -98 11 -170 -2z m-286 -549
c14 -17 5 -27 -24 -27 -24 0 -49 22 -38 33 11 12 50 8 62 -6z"/>
<path d="M367 5128 c-30 -23 -17 -50 68 -143 207 -228 247 -255 325 -220 22
10 46 28 55 41 8 13 21 23 27 21 26 -5 19 44 -12 83 -17 22 -28 40 -23 40 19
0 -124 120 -192 159 -50 30 -217 42 -248 19z"/>
<path d="M0 4509 c0 -121 0 -121 22 -114 13 4 41 9 63 12 52 7 64 19 26 26
-22 5 -29 12 -28 26 1 11 7 23 14 25 7 3 13 21 13 40 0 29 -7 40 -38 63 -20
15 -38 31 -40 36 -2 4 -10 7 -18 7 -11 0 -14 -23 -14 -121z"/>
<path d="M200 4593 c1 -12 51 -46 58 -39 11 11 -14 41 -37 44 -11 2 -21 0 -21
-5z"/>
<path d="M153 4555 c-7 -8 -9 -16 -4 -19 5 -3 12 1 15 10 8 22 4 25 -11 9z"/>
<path d="M3600 4555 c0 -8 9 -15 20 -15 11 0 20 7 20 15 0 8 -9 15 -20 15 -11
0 -20 -7 -20 -15z"/>
<path d="M3454 4509 c-3 -6 -1 -16 4 -21 13 -13 45 8 36 23 -7 12 -31 11 -40
-2z"/>
<path d="M239 4463 c-1 -5 0 -23 1 -42 1 -27 -1 -33 -14 -28 -23 9 -20 -10 3
-23 29 -15 51 -12 51 6 0 44 -36 121 -41 87z"/>
<path d="M3267 4424 c-11 -11 26 -64 45 -64 25 0 39 31 23 53 -12 17 -55 23
-68 11z"/>
<path d="M3534 4292 c-34 -23 -20 -72 21 -72 24 0 35 17 35 56 0 18 -5 24 -22
24 -13 0 -28 -4 -34 -8z"/>
<path d="M3395 4265 c-5 -2 -22 -6 -37 -9 -37 -8 -39 -51 -4 -67 28 -13 66 3
66 27 0 8 5 12 10 9 6 -3 10 3 10 13 0 15 -23 36 -33 31 -1 0 -6 -2 -12 -4z"/>
<path d="M3790 4081 c0 -13 28 -33 33 -23 3 4 -3 13 -14 20 -10 7 -19 8 -19 3z"/>
<path d="M3426 4031 c-21 -24 -14 -54 11 -49 20 4 30 45 16 59 -6 6 -17 2 -27
-10z"/>
<path d="M4386 4003 c-8 -9 14 -33 30 -33 7 0 15 4 18 9 6 10 -39 32 -48 24z"/>
<path d="M7556 3651 c-4 -5 -2 -12 3 -15 5 -4 12 -2 15 3 4 5 2 12 -3 15 -5 4
-12 2 -15 -3z"/>
<path d="M7511 3574 c0 -11 3 -14 6 -6 3 7 2 16 -1 19 -3 4 -6 -2 -5 -13z"/>
<path d="M8000 3396 c0 -14 5 -26 10 -26 6 0 10 9 10 19 0 11 -4 23 -10 26 -6
4 -10 -5 -10 -19z"/>
<path d="M4128 3383 c7 -3 16 -2 19 1 4 3 -2 6 -13 5 -11 0 -14 -3 -6 -6z"/>
<path d="M8098 3357 c-7 -8 -21 -12 -31 -9 -12 3 -23 -2 -29 -12 -5 -9 -14
-16 -19 -16 -6 0 -22 -9 -36 -20 -14 -11 -34 -20 -44 -20 -11 0 -29 -11 -41
-25 -12 -14 -32 -25 -44 -25 -26 0 -37 -22 -24 -52 7 -19 9 -19 9 -5 1 23 21
12 21 -11 0 -17 -114 -92 -138 -92 -13 0 -14 -2 -16 -43 -1 -16 2 -31 6 -33
14 -9 9 -21 -15 -31 -15 -7 -29 -8 -38 -2 -21 13 -42 11 -36 -5 3 -8 -2 -16
-14 -19 -21 -6 -36 9 -17 16 7 3 -6 2 -29 0 -29 -4 -43 -2 -43 6 0 14 -37 15
-45 1 -3 -5 0 -10 8 -10 8 0 17 -10 20 -22 7 -25 -8 -42 -68 -75 -42 -23 -61
-63 -29 -63 16 0 16 -2 -1 -20 -14 -15 -26 -19 -45 -15 -22 5 -30 0 -51 -32
-17 -27 -38 -43 -74 -56 -60 -22 -79 -37 -66 -50 11 -11 111 1 111 14 0 5 11
7 25 3 17 -4 27 -1 31 9 9 23 37 31 30 9 -5 -13 1 -22 19 -30 32 -15 32 -35 0
-52 -14 -7 -25 -19 -25 -27 0 -7 -11 -13 -25 -13 -26 0 -65 -27 -65 -46 0 -6
9 -22 20 -34 19 -22 28 -24 121 -24 76 0 102 3 109 14 5 8 25 15 44 15 31 1
36 -2 36 -21 0 -17 5 -21 19 -17 10 3 28 0 39 -6 17 -9 22 -8 27 9 3 11 3 25
-1 31 -3 6 0 16 7 21 10 6 7 7 -9 3 -14 -4 -52 1 -87 11 l-63 18 33 23 c19 13
40 23 47 23 8 0 19 5 26 12 7 7 38 11 74 11 74 -1 171 38 176 72 2 10 10 24
18 30 8 6 17 25 20 43 l5 33 -26 -17 c-20 -13 -29 -14 -38 -5 -6 6 -19 11 -28
11 -10 0 -20 4 -23 9 -11 17 6 41 28 41 11 0 30 7 40 15 11 8 32 15 46 15 14
0 35 7 46 15 10 8 27 15 37 15 9 0 27 6 40 13 12 6 23 12 23 12 1 0 4 9 8 21
6 19 3 20 -44 14 -56 -7 -63 -5 -50 20 16 29 -20 73 -73 88 -25 8 -50 11 -55
8 -4 -3 -6 8 -4 25 5 35 15 43 42 34 13 -4 20 -15 20 -31 0 -22 2 -23 20 -14
12 6 23 24 26 40 6 25 13 30 57 40 59 12 87 34 87 66 0 24 -24 54 -44 54 -20
0 -34 20 -29 41 3 10 13 19 23 19 21 0 43 -24 32 -35 -4 -5 1 -5 11 -2 10 4
21 7 23 7 2 0 4 7 4 15 0 9 7 18 15 21 20 8 19 34 -2 50 -23 17 -29 17 -45 1z
m-318 -321 c0 -2 -7 -7 -16 -10 -8 -3 -12 -2 -9 4 6 10 25 14 25 6z"/>
<path d="M3058 3343 c7 -3 16 -2 19 1 4 3 -2 6 -13 5 -11 0 -14 -3 -6 -6z"/>
<path d="M7800 3305 c0 -16 48 -40 59 -30 10 11 -15 40 -38 43 -14 2 -21 -2
-21 -13z"/>
<path d="M7315 3209 c-12 -18 3 -22 20 -5 14 14 14 16 1 16 -8 0 -18 -5 -21
-11z"/>
<path d="M8140 3177 c0 -21 11 -27 31 -16 27 14 23 29 -6 29 -14 0 -25 -6 -25
-13z"/>
<path d="M8022 3090 c-11 -17 -9 -24 8 -42 11 -12 21 -20 22 -17 27 43 28 50
14 64 -20 20 -29 19 -44 -5z"/>
<path d="M7877 2584 c-4 -4 -4 -10 -1 -15 6 -10 34 0 34 12 0 10 -24 12 -33 3z"/>
<path d="M7768 2463 c7 -3 16 -2 19 1 4 3 -2 6 -13 5 -11 0 -14 -3 -6 -6z"/>
<path d="M7104 2279 c-9 -16 2 -22 21 -11 15 8 16 10 1 15 -8 3 -18 2 -22 -4z"/>
<path d="M7520 2260 c0 -11 6 -20 13 -20 8 0 7 -4 -3 -10 -13 -8 -12 -10 4
-10 21 0 78 45 69 54 -4 3 -24 6 -45 6 -31 0 -38 -3 -38 -20z"/>
<path d="M7452 2210 c-11 -18 -10 -20 13 -20 18 0 25 5 25 20 0 11 -6 20 -13
20 -7 0 -18 -9 -25 -20z"/>
<path d="M4080 1555 c0 -9 5 -15 11 -13 6 2 11 8 11 13 0 5 -5 11 -11 13 -6 2
-11 -4 -11 -13z"/>
</g>
</svg>
